FILE "out.iso" BINARY
  TRACK 01 MODE1/2048
      INDEX 01 00:00:00
      POSTGAP 00:02:00
FILE "out_02.mp3" MP3
  TRACK 02 AUDIO
    PREGAP 00:02:00
    INDEX 01 00:00:00
FILE "out_03.mp3" MP3
  TRACK 03 AUDIO
    INDEX 01 00:00:00
FILE "out_04.mp3" MP3
  TRACK 04 AUDIO
    INDEX 01 00:00:00
FILE "out_05.mp3" MP3
  TRACK 05 AUDIO
    INDEX 01 00:00:00
FILE "out_06.mp3" MP3
  TRACK 06 AUDIO
    INDEX 01 00:00:00
FILE "out_07.mp3" MP3
  TRACK 07 AUDIO
    INDEX 01 00:00:00
FILE "out_08.mp3" MP3
  TRACK 08 AUDIO
    INDEX 01 00:00:00
FILE "out_09.mp3" MP3
  TRACK 09 AUDIO
    INDEX 01 00:00:00
FILE "out_10.mp3" MP3
  TRACK 10 AUDIO
    INDEX 01 00:00:00
FILE "out_11.mp3" MP3
  TRACK 11 AUDIO
    INDEX 01 00:00:00
FILE "out_12.mp3" MP3
  TRACK 12 AUDIO
    INDEX 01 00:00:00
FILE "out_13.mp3" MP3
  TRACK 13 AUDIO
    INDEX 01 00:00:00
FILE "out_14.mp3" MP3
  TRACK 14 AUDIO
    INDEX 01 00:00:00
FILE "out_15.mp3" MP3
  TRACK 15 AUDIO
    INDEX 01 00:00:00
FILE "out_16.mp3" MP3
  TRACK 16 AUDIO
    INDEX 01 00:00:00
FILE "out_17.mp3" MP3
  TRACK 17 AUDIO
    INDEX 01 00:00:00
FILE "out_18.mp3" MP3
  TRACK 18 AUDIO
    INDEX 01 00:00:00
FILE "out_19.mp3" MP3
  TRACK 19 AUDIO
    INDEX 01 00:00:00
FILE "out_20.mp3" MP3
  TRACK 20 AUDIO
    INDEX 01 00:00:00

